<?xml version="1.0" encoding="UTF-8"?>
<svg version="1.1" xmlns="http://www.w3.org/2000/svg" width="1536" height="1024">
<path d="M0 0 C506.88 0 1013.76 0 1536 0 C1536 337.92 1536 675.84 1536 1024 C1029.12 1024 522.24 1024 0 1024 C0 686.08 0 348.16 0 0 Z " fill="#000000" transform="translate(0,0)"/>
<path d="M0 0 C4.11367199 1.8844583 8.04940887 4.04729033 12 6.25 C13.14194824 6.87608154 14.28389648 7.50216309 15.46044922 8.1472168 C18.98322 10.08119542 22.49259186 12.03828811 26 14 C27.05606445 14.59055176 28.11212891 15.18110352 29.20019531 15.78955078 C36.59256195 19.93432869 43.96021731 24.12209421 51.31982422 28.32470703 C57.99495998 32.13329358 64.6530594 35.87753494 71.5625 39.25 C78.09117263 42.45798989 84.4199105 45.9799065 90.75 49.5625 C91.70849854 50.10487305 92.66699707 50.64724609 93.65454102 51.20605469 C99.11242573 54.31193059 104.49935685 57.50006069 109.81738281 60.84057617 C113.33681884 62.71012894 116.17312307 63.10278324 120 62 C122.54100118 60.69060654 124.90463165 59.21248595 127.3046875 57.66015625 C142.44628002 48.33381303 161.94481239 46.49182942 179.22119141 50.02783203 C192.58760485 53.23749724 204.88756362 59.70080151 215 69 C215.77859375 69.69867188 216.5571875 70.39734375 217.359375 71.1171875 C223.03473943 76.46878953 227.15916716 82.23237867 231 89 C231.53625 89.91394531 232.0725 90.82789063 232.625 91.76953125 C242.55116606 109.90959973 244.12863449 132.42829108 238.39453125 152.18359375 C234.70750101 162.79860614 229.40799582 172.53857358 222 181 C221.45859375 181.68320312 220.9171875 182.36640625 220.359375 183.0703125 C214.51117088 190.25759139 207.26617743 194.84588317 199.171875 199.2109375 C197.71152832 200.00056885 197.71152832 200.00056885 196.22167969 200.80615234 C195.48852539 201.20012207 194.75537109 201.5940918 194 202 C193.972492 209.06369306 193.95732749 216.12736387 193.94644165 223.19110107 C193.94047604 225.85738331 193.93224103 228.52351468 193.91952515 231.1897583 C193.83478924 249.26060953 194.04792743 267.29852543 194.58814049 285.36210823 C194.77077401 291.70782875 194.9183467 298.05448431 195.06633472 304.40109539 C195.19273062 309.66231033 195.34527588 314.92037738 195.55319214 320.17904663 C195.75148583 325.19485525 195.88831602 330.20877958 195.98115921 335.22760963 C196.02707709 337.09215447 196.09596327 338.95629436 196.18931198 340.819067 C196.87003351 354.73233949 196.87003351 354.73233949 193.72970772 358.54039574 C190.20900669 361.51651846 186.25102552 363.25088461 182 365 C180.76985516 365.71075994 179.55228486 366.44502752 178.36328125 367.22265625 C169.48603511 372.57628357 160.51297599 377.75692011 151.52709961 382.92578125 C143.11998265 387.76571718 134.74035144 392.65076332 126.375 397.5625 C125.46214737 398.0984227 125.46214737 398.0984227 124.53085327 398.64517212 C122.10018046 400.07222268 119.66951477 401.49928534 117.23893738 402.92649841 C108.47435048 408.07161731 99.69156937 413.18556964 90.91064453 418.30273438 C87.96939161 420.01784848 85.02943984 421.73517294 82.08984375 423.453125 C71.74334141 429.49812944 61.38294226 435.51777499 51 441.5 C42.34716345 446.4879531 33.69758518 451.48136429 25.0625 456.5 C23.63454102 457.32661133 23.63454102 457.32661133 22.17773438 458.16992188 C16.48284404 461.48557786 10.89253902 464.93251828 5.35302734 468.50195312 C-1.96949718 473.16381352 -1.96949718 473.16381352 -4.93359375 472.69262695 C-7.06062769 471.97967855 -8.72563478 471.10684004 -10.625 469.91796875 C-11.32077148 469.48693848 -12.01654297 469.0559082 -12.73339844 468.61181641 C-13.48137695 468.14179199 -14.22935547 467.67176758 -15 467.1875 C-16.62973514 466.17762139 -18.25996099 465.16853433 -19.890625 464.16015625 C-21.15616211 463.37535889 -21.15616211 463.37535889 -22.44726562 462.57470703 C-26.5278405 460.05751996 -30.63705957 457.58884172 -34.75 455.125 C-35.57773926 454.62887207 -36.40547852 454.13274414 -37.25830078 453.62158203 C-43.45189258 449.91492815 -49.66078969 446.23445818 -55.875 442.5625 C-56.77468506 442.02979492 -57.67437012 441.49708984 -58.60131836 440.94824219 C-63.46793571 438.07040962 -68.34762781 435.21785237 -73.24609375 432.39453125 C-74.76904053 431.51075806 -74.76904053 431.51075806 -76.32275391 430.60913086 C-78.28039865 429.47364575 -80.24218447 428.34526325 -82.20849609 427.22485352 C-83.0845752 426.71494873 -83.9606543 426.20504395 -84.86328125 425.6796875 C-86.02790894 425.01042236 -86.02790894 425.01042236 -87.21606445 424.32763672 C-89 423 -89 423 -90 420 C-89.0570105 419.47212891 -89.0570105 419.47212891 -88.0949707 418.93359375 C-69.72298682 408.64864026 -69.72298682 408.64864026 -51.81542969 397.58251953 C-49.40652403 396.02013271 -46.98495369 394.47877368 -44.5625 392.9375 C-43.80412842 392.43524902 -43.04575684 391.93299805 -42.2644043 391.41552734 C-41.53906494 390.95742676 -40.81372559 390.49932617 -40.06640625 390.02734375 C-39.42646729 389.61218506 -38.78652832 389.19702637 -38.12719727 388.76928711 C-34.23155448 387.36045314 -30.98567726 388.55067634 -27.33447266 390.21508789 C-26.4532373 390.71258545 -25.57200195 391.21008301 -24.6640625 391.72265625 C-23.68179688 392.26083984 -22.69953125 392.79902344 -21.6875 393.35351562 C-19.65011873 394.49044714 -17.61623014 395.63366083 -15.5859375 396.78320312 C-7.70560154 401.26996738 -7.70560154 401.26996738 1 401 C4.86777397 399.26731347 8.40663857 397.11379587 12 394.875 C14.14555532 393.58026834 16.29139666 392.28601057 18.4375 390.9921875 C19.52804687 390.32670898 20.61859375 389.66123047 21.7421875 388.97558594 C26.78854365 385.91540054 31.89468711 382.96037532 37 380 C39.00294699 378.83261926 41.00555043 377.66464887 43.0078125 376.49609375 C43.99813477 375.91843262 44.98845703 375.34077148 46.00878906 374.74560547 C48.98306294 373.0098841 51.95648422 371.27271075 54.9296875 369.53515625 C65.41492027 363.40965 75.91499193 357.31128222 86.4375 351.25 C93.59566529 347.12513349 100.75247581 342.9986951 107.875 338.8125 C108.52339844 338.4314209 109.17179687 338.0503418 109.83984375 337.65771484 C113.71289467 335.37249953 117.56548512 333.05530998 121.41015625 330.72265625 C122.32877441 330.16666748 123.24739258 329.61067871 124.19384766 329.0378418 C125.99155702 327.94830643 127.78690154 326.85485733 129.57958984 325.75708008 C130.38734863 325.26747803 131.19510742 324.77787598 132.02734375 324.2734375 C132.74656006 323.83435059 133.46577637 323.39526367 134.20678711 322.94287109 C136 322 136 322 138 322 C137.96285215 307.05753218 137.9030194 292.11528393 137.81609726 277.17302227 C137.77626896 270.23521722 137.74389588 263.29752622 137.72900391 256.35961914 C137.71461992 249.66808483 137.67955263 242.97695488 137.63169098 236.28556252 C137.61681742 233.72864663 137.60895559 231.17168031 137.60811615 228.6147213 C137.60576276 225.04183344 137.5788132 221.46993513 137.54589844 217.8972168 C137.5509288 216.83266769 137.55595917 215.76811859 137.56114197 214.67131042 C137.54027275 213.21368286 137.54027275 213.21368286 137.51898193 211.72660828 C137.51529476 210.88132411 137.51160759 210.03603994 137.50780869 209.16514111 C137.17672972 206.84527461 137.17672972 206.84527461 135.16141129 205.29882526 C132.32665006 203.59537367 129.38042655 202.25443081 126.375 200.875 C119.52987173 197.58834031 114.36539171 193.39428969 109 188 C108.35417969 187.401875 107.70835937 186.80375 107.04296875 186.1875 C93.52522063 173.46491353 84.65554622 153.06691084 83.66015625 134.546875 C83.50729528 127.6641712 84.02709936 120.81030451 85 114 C84.00033203 113.63648438 84.00033203 113.63648438 82.98046875 113.265625 C79.26901311 111.68959403 75.81453493 109.73558847 72.3125 107.75 C60.29428876 101.00737681 48.14538585 94.50983027 36 88 C35.39536926 87.67588135 34.79073853 87.3517627 34.16778564 87.01782227 C28.7052142 84.08967015 23.24224717 81.16225906 17.77783203 78.23754883 C16.14563721 77.363927 16.14563721 77.363927 14.48046875 76.47265625 C13.41618652 75.90691895 12.3519043 75.34118164 11.25537109 74.75830078 C8.98396236 73.5314607 6.73748937 72.28619818 4.49853516 71.00341797 C3.36077637 70.36162598 2.22301758 69.71983398 1.05078125 69.05859375 C0.03282471 68.47263428 -0.98513184 67.8866748 -2.03393555 67.28295898 C-5.38175882 65.83487179 -7.39017677 65.56119737 -11 66 C-13.69055134 67.06626256 -13.69055134 67.06626256 -16.2890625 68.68359375 C-17.29839844 69.27269531 -18.30773437 69.86179687 -19.34765625 70.46875 C-20.42917969 71.1184375 -21.51070312 71.768125 -22.625 72.4375 C-23.77677389 73.11685249 -24.9291303 73.79521822 -26.08203125 74.47265625 C-35.61624873 80.09508515 -45.06145872 85.86951443 -54.50512695 91.64233398 C-63.62523451 97.20995451 -72.84612842 102.57943314 -82.11621094 107.89404297 C-88.26780876 111.42102225 -94.38881961 114.98619245 -100.45556641 118.65698242 C-106.77317425 122.47864646 -113.13225752 126.22984864 -119.50317383 129.96191406 C-124.25181904 132.75093773 -128.9585043 135.5855251 -133.609375 138.53515625 C-134.50567627 139.09614014 -135.40197754 139.65712402 -136.32543945 140.23510742 C-138.0240773 141.3015389 -139.71338949 142.38302196 -141.39135742 143.48168945 C-145.03685412 145.75356514 -147.22512307 146.98227406 -151.5859375 147.08203125 C-155.6630406 145.78986013 -159.04075038 144.01626544 -162.6875 141.8125 C-164.10674955 140.98340757 -165.5273333 140.15659496 -166.94921875 139.33203125 C-167.64063965 138.92936035 -168.33206055 138.52668945 -169.04443359 138.11181641 C-171.6458474 136.63281036 -174.30863611 135.3070235 -177 134 C-181.88037512 131.60661056 -186.6362742 129.03457737 -191.375 126.375 C-192.04144531 126.00246094 -192.70789063 125.62992187 -193.39453125 125.24609375 C-197.3854769 122.9896436 -201.21608441 120.58899488 -205 118 C-201.46241374 115.04296792 -197.8587385 112.62245861 -193.87109375 110.3125 C-193.28912231 109.9736377 -192.70715088 109.63477539 -192.10754395 109.28564453 C-190.86435264 108.56224326 -189.62013283 107.84060704 -188.37496948 107.12060547 C-185.07836924 105.21389763 -181.78990181 103.29323393 -178.5 101.375 C-177.84692368 100.99472656 -177.19384735 100.61445313 -176.52098083 100.22265625 C-171.30499225 97.18403864 -166.11096604 94.11054509 -160.9375 91 C-160.1626123 90.53424561 -159.38772461 90.06849121 -158.58935547 89.58862305 C-153.907454 86.76762324 -149.23733964 83.92756246 -144.5703125 81.08203125 C-142.23463698 79.6584238 -139.89868134 78.23527722 -137.5625 76.8125 C-136.972341 76.4530127 -136.38218201 76.09352539 -135.7741394 75.72314453 C-126.13837857 69.85836817 -116.43166139 64.12408811 -106.68676758 58.44290161 C-97.58874105 53.13628077 -88.55477993 47.73382877 -79.5625 42.25 C-68.6566744 35.59995022 -57.69678481 29.04969658 -46.68408203 22.578125 C-42.92133662 20.36579224 -39.16199895 18.14772005 -35.40405273 15.92724609 C-33.53399106 14.8234293 -31.66244537 13.7221222 -29.78930664 12.62353516 C-25.65899546 10.19570076 -21.55961616 7.74251625 -17.53125 5.1484375 C-16.85376709 4.71885742 -16.17628418 4.28927734 -15.47827148 3.84667969 C-14.25110829 3.06412271 -13.03333775 2.26651362 -11.82836914 1.45019531 C-7.46120389 -1.31404769 -4.91890962 -1.43113749 0 0 Z " fill="#D21C21" transform="translate(833,261)"/>
<path d="M0 0 C4.02795748 0.45602013 6.85110057 1.86884012 10.2890625 3.95703125 C11.30299072 4.56869141 12.31691895 5.18035156 13.36157227 5.81054688 C14.97696899 6.80151367 14.97696899 6.80151367 16.625 7.8125 C18.30517212 8.8324707 18.30517212 8.8324707 20.01928711 9.87304688 C28.10217871 14.78769059 36.11918062 19.80471381 44.09765625 24.88671875 C50.85847111 29.19135217 57.66555345 33.42216287 64.46704102 37.66210938 C66.3633154 38.84528932 68.25844519 40.03030597 70.15234375 41.21728516 C72.14098222 42.46223013 74.13349194 43.70100321 76.12890625 44.93505859 C77.12792969 45.55848145 78.12695312 46.1819043 79.15625 46.82421875 C80.51459961 47.66666138 80.51459961 47.66666138 81.90039062 48.52612305 C84 50 84 50 85 52 C84.34854004 52.37060547 83.69708008 52.74121094 83.02587891 53.12304688 C79.8896306 54.91081235 76.75700122 56.70480423 73.625 58.5 C72.76196762 58.9930513 72.76196762 58.9930513 71.88150024 59.49606323 C65.05024456 63.40333313 58.29545268 67.39611422 51.66015625 71.62890625 C51.07119568 72.00216034 50.48223511 72.37541443 49.87542725 72.75997925 C47.02436654 74.56753096 44.18827694 76.39086087 41.36767578 78.24609375 C39.83022705 79.22449219 39.83022705 79.22449219 38.26171875 80.22265625 C36.91533325 81.10062866 36.91533325 81.10062866 35.54174805 81.99633789 C33 83 33 83 30.5144043 82.36572266 C29.68465088 81.91503418 28.85489746 81.4643457 28 81 C26.68346436 80.28904175 26.68346436 80.28904175 25.34033203 79.5637207 C24.40560059 79.02320068 23.47086914 78.48268066 22.5078125 77.92578125 C21.47269531 77.34119141 20.43757813 76.75660156 19.37109375 76.15429688 C17.20787683 74.92691207 15.05155274 73.68729829 12.90234375 72.43554688 C6.85681415 68.99234383 6.85681415 68.99234383 0.109375 67.890625 C-3.23762206 69.08477973 -5.90677437 70.48099053 -8.875 72.4375 C-10.01834831 73.17371536 -11.16294261 73.9079983 -12.30859375 74.640625 C-12.90913574 75.02798828 -13.50967773 75.41535156 -14.12841797 75.81445312 C-17.34936184 77.85474838 -20.64442238 79.76663485 -23.9375 81.6875 C-25.38815082 82.53753862 -26.83866711 83.38780687 -28.2890625 84.23828125 C-29.04735352 84.68252441 -29.80564453 85.12676758 -30.58691406 85.58447266 C-44.69631446 93.86111203 -58.75236437 102.22563973 -72.76904297 110.65820312 C-75.41322165 112.2485299 -78.05890103 113.83634112 -80.70507812 115.42333984 C-81.9032247 116.14203222 -83.1011409 116.8611088 -84.29882812 117.58056641 C-87.70421402 119.62579683 -91.11370671 121.66387993 -94.52734375 123.6953125 C-104.07867143 129.38855852 -113.56574153 135.17702503 -123 141.0625 C-124.03310303 141.70590332 -125.06620605 142.34930664 -126.13061523 143.01220703 C-127.09813721 143.61790527 -128.06565918 144.22360352 -129.0625 144.84765625 C-129.91972656 145.38398682 -130.77695312 145.92031738 -131.66015625 146.47290039 C-132.43230469 146.97684326 -133.20445312 147.48078613 -134 148 C-134.6980607 148.43269731 -135.39612141 148.86539461 -136.11533546 149.31120396 C-138.16920394 150.82881585 -138.16920394 150.82881585 -138.49777794 153.09149837 C-138.4966884 153.90208989 -138.49559887 154.71268141 -138.49447632 155.5478363 C-138.5028653 156.48015076 -138.51125427 157.41246521 -138.51989746 158.37303162 C-138.50865845 159.39389359 -138.49741943 160.41475555 -138.48583984 161.46655273 C-138.48963654 162.54321198 -138.49343323 163.61987122 -138.49734497 164.72915649 C-138.50477033 168.29759609 -138.48333794 171.86522617 -138.4609375 175.43359375 C-138.458554 177.90837 -138.45764755 180.38314807 -138.4581604 182.85792542 C-138.45502889 188.04903461 -138.43843715 193.23986831 -138.41162109 198.4309082 C-138.37765849 205.09042549 -138.36999182 211.74948596 -138.37151146 218.40910244 C-138.37096795 223.52113244 -138.36000346 228.63309594 -138.34550858 233.74510384 C-138.33913657 236.20074014 -138.33520074 238.656384 -138.33372116 241.11202812 C-138.32939153 244.54283389 -138.31189676 247.97331629 -138.29052734 251.40405273 C-138.29143372 252.42289047 -138.29234009 253.44172821 -138.29327393 254.49143982 C-138.28474396 255.4265741 -138.27621399 256.36170837 -138.26742554 257.32518005 C-138.26407385 258.1361486 -138.26072216 258.94711714 -138.25726891 259.78266048 C-137.96337491 262.31566297 -137.39644686 263.86796705 -136 266 C-133.41096871 267.47735684 -130.87129494 268.78577708 -128.1875 270.0625 C-110.11015194 279.20814059 -97.98450228 292.71854067 -91 312 C-87.80547221 321.81243942 -87.6032795 331.1334775 -87.94140625 341.38916016 C-88.42570462 349.2929896 -88.42570462 349.2929896 -85.17797852 356.10644531 C-82.85239497 357.67668798 -80.55903976 358.85598935 -78 360 C-76.81826031 360.69395381 -75.64401139 361.40094951 -74.48046875 362.125 C-68.04815912 365.78752506 -61.58321841 369.24532524 -54.93359375 372.50390625 C-50.94781268 374.53660152 -47.11438318 376.79490699 -43.27734375 379.09375 C-38.57282749 381.83010749 -33.78432461 384.4063945 -29 387 C-27.00903729 388.08449352 -25.01815253 389.16913018 -23.02734375 390.25390625 C-20.99749067 391.35694538 -18.96754227 392.4598091 -16.9375 393.5625 C-15.92623047 394.11357422 -14.91496094 394.66464844 -13.87304688 395.23242188 C-11.87753819 396.3156246 -9.87657499 397.38884877 -7.86987305 398.45117188 C-5.98184603 399.47011219 -4.1169598 400.53335977 -2.28051758 401.64257812 C0.14375821 403.04060702 2.31649796 404.205502 5 405 C8.23788879 403.98964308 9.61892364 403.32789574 12.1875 401.375 C13.50071691 400.48611404 14.81453421 399.59811452 16.12890625 398.7109375 C16.78133301 398.25041992 17.43375977 397.78990234 18.10595703 397.31542969 C20.86307212 395.40058874 23.73515248 393.7062577 26.625 392 C27.87251074 391.25149356 29.11989712 390.50277983 30.3671875 389.75390625 C36.47337322 386.11213155 42.61415208 382.52896984 48.75 378.9375 C68.25938131 367.5177211 87.71356668 356.00649734 107.0859375 344.35546875 C107.77397461 343.94731934 108.46201172 343.53916992 109.17089844 343.11865234 C110.70808088 342.17853356 112.19360372 341.15467655 113.6640625 340.11328125 C116.85176757 338.59405726 118.58870834 339.21287923 122 340 C124.67114258 341.17651367 124.67114258 341.17651367 127.39453125 342.66796875 C128.93488037 343.50400635 128.93488037 343.50400635 130.50634766 344.35693359 C131.59737793 344.96102051 132.6884082 345.56510742 133.8125 346.1875 C134.94220215 346.80447754 136.0719043 347.42145508 137.23583984 348.05712891 C140.83197827 350.02357918 144.41726916 352.00924751 148 354 C148.60426819 354.33561951 149.20853638 354.67123901 149.83111572 355.01702881 C157.56932473 359.3175844 165.29131606 363.6467432 173 368 C173 368.99 173 369.98 173 371 C171.25024414 372.37524414 171.25024414 372.37524414 168.78515625 373.78515625 C167.88023437 374.31044922 166.9753125 374.83574219 166.04296875 375.37695312 C165.05941406 375.93318359 164.07585937 376.48941406 163.0625 377.0625 C162.05703125 377.64322266 161.0515625 378.22394531 160.015625 378.82226562 C157.96873062 380.00436664 155.91941166 381.18227936 153.86767578 382.35595703 C150.05961677 384.53912316 146.27887749 386.7668585 142.5 389 C141.12643798 389.80752287 139.75273719 390.61480972 138.37890625 391.421875 C134.3160478 393.81168208 130.25957841 396.21221083 126.20336914 398.61328125 C109.77495515 408.3348884 93.33379079 418.0300431 76.6875 427.375 C66.84729858 432.8999681 57.13272858 438.62406224 47.43676758 444.39648438 C40.75408227 448.37366239 34.05006867 452.29617328 27.28125 456.125 C22.38384459 458.92351738 17.53152516 461.79811315 12.68115234 464.67724609 C12.00004395 465.08023926 11.31893555 465.48323242 10.6171875 465.8984375 C9.71395752 466.43476807 9.71395752 466.43476807 8.79248047 466.98193359 C3.4650914 470.00770483 3.4650914 470.00770483 0.40625 469.95703125 C-4.59853802 468.55086948 -8.93562305 466.14435941 -13.5 463.6875 C-14.51755371 463.14770508 -15.53510742 462.60791016 -16.58349609 462.05175781 C-19.72820042 460.37853594 -22.86525894 458.69180452 -26 457 C-27.36366699 456.26547607 -27.36366699 456.26547607 -28.75488281 455.51611328 C-34.16776679 452.59444328 -39.56347966 449.64233237 -44.95214844 446.67626953 C-47.67436351 445.17909485 -50.39888453 443.68620151 -53.12423706 442.19474792 C-66.87277182 434.66761913 -80.54982715 427.03784213 -94.08691406 419.13549805 C-97.05005368 417.40959321 -100.02461506 415.70468772 -103 414 C-104.13050781 413.33242676 -105.26101563 412.66485352 -106.42578125 411.97705078 C-108.13314453 411.00034424 -108.13314453 411.00034424 -109.875 410.00390625 C-110.90367187 409.40521729 -111.93234375 408.80652832 -112.9921875 408.18969727 C-116.54763451 406.78339099 -118.36093785 406.95338684 -122 408 C-122.886875 408.598125 -123.77375 409.19625 -124.6875 409.8125 C-129.18023296 412.77939912 -133.91042507 414.32088804 -139 416 C-140.175625 416.391875 -141.35125 416.78375 -142.5625 417.1875 C-162.9967552 422.01741486 -183.02776462 418.66155733 -201.08642578 408.20654297 C-220.07191867 396.23584817 -231.01468667 378.45348966 -236.74609375 357.23828125 C-241.37666698 336.38473424 -237.05639258 314.69027725 -225.8125 296.75 C-219.43094499 287.03846566 -211.52277162 279.35847379 -201.41015625 273.53515625 C-198.78755216 271.86468071 -196.97487824 270.41118073 -195 268 C-194.46074123 265.12584429 -194.46074123 265.12584429 -194.6401062 261.89842224 C-194.67087753 260.02083473 -194.67087753 260.02083473 -194.70227051 258.10531616 C-194.74513388 256.72051296 -194.78823262 255.33571703 -194.83154297 253.95092773 C-194.86214481 252.49041198 -194.89070928 251.02985231 -194.91738892 249.56925964 C-194.97747919 246.42383698 -195.04861399 243.27892144 -195.12725449 240.13390923 C-195.24828523 235.15318153 -195.32362361 230.17242486 -195.38870239 225.19068909 C-195.41151386 223.48346205 -195.43434691 221.7762353 -195.457201 220.06900883 C-195.46860438 219.21399253 -195.48000775 218.35897623 -195.49175668 217.47805035 C-195.64968565 205.88284727 -195.84361289 194.28960472 -196.13818359 182.69702148 C-196.33660968 174.87394897 -196.47018094 167.05262411 -196.53091156 159.22723538 C-196.56571494 155.0886041 -196.63329953 150.95642907 -196.78087997 146.820158 C-197.6521039 121.67658861 -197.6521039 121.67658861 -193.23649979 115.55527496 C-189.03850403 111.74365451 -184.40836826 109.55179456 -179.07801151 107.73848248 C-176.43218594 106.79821058 -174.18885898 105.44088744 -171.8515625 103.8984375 C-170.44308477 103.05666149 -169.03423252 102.21551179 -167.625 101.375 C-161.91166956 97.95909344 -156.21061327 94.52432781 -150.52734375 91.05859375 C-137.71144305 83.2435982 -124.84616114 75.53158221 -111.87817383 67.97122192 C-104.43220095 63.62818839 -97.03805436 59.2272256 -89.76098633 54.60595703 C-81.48024436 49.36605227 -72.99188784 44.46835979 -64.54589844 39.50146484 C-59.25778044 36.38275313 -53.99949386 33.21440336 -48.74023438 30.04736328 C-46.37599917 28.62444394 -44.00973261 27.20492316 -41.64331055 25.78564453 C-40.42324893 25.05383534 -39.20335941 24.32173917 -37.98364258 23.58935547 C-34.32392332 21.39210266 -30.66121775 19.19994589 -26.99609375 17.01171875 C-12.75939133 9.48762301 -12.75939133 9.48762301 0 0 Z " fill="#D21C21" transform="translate(613,259)"/>
<path d="M0 0 C2.04726224 -0.02338145 4.09449587 -0.04940157 6.14169312 -0.07791138 C10.42078136 -0.12249743 14.69689919 -0.12109372 18.97607422 -0.08935547 C23.33401858 -0.06155333 27.68192635 -0.1029791 32.03857422 -0.21240234 C71.94483228 -1.20894288 71.94483228 -1.20894288 82.51620483 8.28097534 C88.36836627 14.73673172 92.02508078 19.79682238 92.01869202 28.57498169 C92.01997365 29.63110147 92.01997365 29.63110147 92.02128118 30.70855701 C92.02293471 33.07933042 92.01741669 35.45003384 92.01196289 37.82080078 C92.01168097 39.5156555 92.01183886 41.21051034 92.0124054 42.90536499 C92.01269316 47.51668037 92.00679978 52.12796991 91.99983144 56.73927927 C91.99359445 61.55460893 91.99299383 66.36993914 91.99180603 71.18527222 C91.98869374 80.30836452 91.98048171 89.43144489 91.97045654 98.55453193 C91.95929225 108.93890148 91.95378416 119.3232716 91.94876111 129.70764565 C91.93829902 151.07333294 91.92070154 172.43900947 91.8984375 193.8046875 C77.64252512 194.2750318 63.38783879 194.62471952 49.12572098 194.84093094 C42.50085634 194.94477491 35.88086626 195.08527086 29.25878906 195.31347656 C22.85213551 195.53284461 16.45048941 195.65077214 10.04036713 195.70223236 C7.61110358 195.73883468 5.18207629 195.81031907 2.75498199 195.91928864 C-9.75047634 196.45776353 -19.1310634 195.84116543 -28.94231987 187.44711781 C-36.41636497 180.14881924 -42.15759446 173.08640628 -42.55033302 162.37112713 C-42.52090705 160.04114135 -42.39732303 157.72859442 -42.265625 155.40234375 C-42.2434465 153.73905505 -42.22941588 152.07564034 -42.22299194 150.41221619 C-42.18972135 146.97008876 -42.09257289 143.53872497 -41.93994141 140.09985352 C-41.74534478 135.70083728 -41.66757866 131.30950038 -41.63059425 126.90660954 C-41.59006651 122.67502333 -41.49239883 118.44532414 -41.390625 114.21484375 C-41.37631062 113.4169298 -41.36199623 112.61901585 -41.34724808 111.79692268 C-41.2964509 109.53929771 -41.20496401 107.28717671 -41.10009766 105.03149414 C-41.05309723 103.75278946 -41.0060968 102.47408478 -40.95767212 101.15663147 C-39.77726597 96.53496248 -37.94501911 95.5357526 -34.1015625 92.8046875 C-30.68093153 89.50794236 -30.68093153 89.50794236 -27.69946289 85.82739258 C-24.66378367 81.99952974 -22.3451475 80.06033943 -17.48535156 79.0612793 C-12.96477444 78.68032301 -8.44622633 78.74732048 -3.9140625 78.8046875 C-2.24395869 78.79716081 -0.57386736 78.78611966 1.09619141 78.77172852 C5.4696054 78.7434037 9.84154786 78.76251138 14.21490479 78.79180908 C19.47390315 78.8170473 24.73281655 78.7828285 29.99177551 78.75868225 C37.96151704 78.72869326 45.92765341 78.77379299 53.8984375 78.8046875 C54.2284375 65.9346875 54.5584375 53.0646875 54.8984375 39.8046875 C35.7584375 39.8046875 16.6184375 39.8046875 -3.1015625 39.8046875 C-3.1015625 46.4046875 -3.1015625 53.0046875 -3.1015625 59.8046875 C-15.3115625 59.8046875 -27.5215625 59.8046875 -40.1015625 59.8046875 C-40.26298542 54.53666332 -40.40205249 49.27732378 -40.48608398 44.00878906 C-40.5211282 42.22008081 -40.56878051 40.43157079 -40.62963867 38.64355469 C-41.1862143 21.86209789 -41.1862143 21.86209789 -37.32421875 17.3359375 C-36.69626907 16.84034332 -36.0683194 16.34474915 -35.42134094 15.83413696 C-32.95538501 13.80138546 -32.95538501 13.80138546 -30.80604553 10.89828491 C-22.12445673 0.06079013 -13.24302584 -0.06343299 0 0 Z " fill="#120C0C" transform="translate(569.1015625,401.1953125)"/>
<path d="M0 0 C2.52864893 0.03552411 5.0574304 0.0625289 7.58625793 0.08146667 C13.51048715 0.146047 19.42764779 0.294946 25.34900886 0.48710698 C32.10287504 0.70140271 38.85711562 0.80440844 45.61354864 0.89932024 C59.48251371 1.09657654 73.34284746 1.44416252 87.20703125 1.85546875 C87.20703125 14.39546875 87.20703125 26.93546875 87.20703125 39.85546875 C55.85703125 39.85546875 24.50703125 39.85546875 -7.79296875 39.85546875 C-7.79296875 52.72546875 -7.79296875 65.59546875 -7.79296875 78.85546875 C-2.52714844 78.63503906 2.73867188 78.41460937 8.1640625 78.1875 C11.54147177 78.09017251 14.91710473 77.99872214 18.29492188 77.92773438 C23.63468062 77.8149744 28.96813931 77.6831007 34.30297852 77.42211914 C66.51242354 75.89320007 66.51242354 75.89320007 77.57757568 83.79026794 C86.56694139 92.04216613 88.72423258 101.67733226 89.45335197 113.36499977 C89.73217064 120.08840322 89.5405621 126.79416315 89.32769775 133.51647949 C89.25003019 136.97346026 89.29586148 140.42452613 89.33954811 143.88175201 C89.62919007 172.83287115 89.62919007 172.83287115 82.29429626 181.54656982 C80.0109426 183.77247315 77.68783504 185.74994024 75.02708435 187.50994873 C72.9943606 188.88530495 72.9943606 188.88530495 71.1791687 191.47264099 C66.72144932 195.04649235 62.72990719 194.51838604 57.17456055 194.4230957 C56.06192337 194.42382584 54.94928619 194.42455597 53.80293274 194.42530823 C50.12854109 194.42182728 46.45541997 194.38293909 42.78125 194.34375 C40.23249504 194.33442376 37.68373112 194.32730676 35.13496399 194.3223114 C29.11416181 194.30517717 23.09390427 194.26577925 17.07332021 194.21556395 C10.21729277 194.15962513 3.36124328 194.13217272 -3.49495566 194.10708678 C-17.59459158 194.05486118 -31.69365321 193.9631882 -45.79296875 193.85546875 C-45.79296875 180.98546875 -45.79296875 168.11546875 -45.79296875 154.85546875 C-14.11296875 154.85546875 17.56703125 154.85546875 50.20703125 154.85546875 C50.20703125 142.31546875 50.20703125 129.77546875 50.20703125 116.85546875 C44.82261719 117.01789063 39.43820312 117.1803125 33.890625 117.34765625 C30.44962923 117.4193166 27.00957163 117.486709 23.56835938 117.5390625 C18.12245307 117.62231183 12.67988505 117.72002635 7.23657227 117.91162109 C-26.22024201 119.0591837 -26.22024201 119.0591837 -34.65306091 111.98001099 C-36.88724104 109.65611663 -38.85583147 107.30172301 -40.5877533 104.58084106 C-41.7851593 102.70718218 -41.7851593 102.70718218 -43.88858032 101.09861755 C-46.46410295 98.06495046 -46.46244813 95.35776894 -46.54858398 91.54272461 C-46.57968765 90.81188156 -46.61079132 90.08103851 -46.64283752 89.32804871 C-46.73694428 86.90889386 -46.79832926 84.49069746 -46.8515625 82.0703125 C-46.87160906 81.23715578 -46.89165562 80.40399906 -46.91230965 79.54559517 C-47.01336431 75.12125698 -47.08573108 70.69737944 -47.13842773 66.2722168 C-47.19893965 61.74932851 -47.36705967 57.23738164 -47.56071377 52.71852779 C-47.68946298 49.2031094 -47.7310046 45.69013747 -47.75139046 42.17257881 C-47.77605091 40.5100254 -47.83242388 38.84756777 -47.92410088 37.18736076 C-48.43573869 27.33599148 -46.51112945 20.6306184 -40.21934319 12.87544823 C-28.24546025 -0.11126961 -16.85634826 -0.70424029 0 0 Z " fill="#120C0C" transform="translate(813.79296875,401.14453125)"/>
<path d="M0 0 C0.56332031 0.39316406 1.12664063 0.78632813 1.70703125 1.19140625 C2.77953125 1.93390625 3.85203125 2.67640625 4.95703125 3.44140625 C9.29008868 7.77446368 12.09043655 13.02545926 12.70703125 19.19140625 C12.85140625 20.36703125 12.99578125 21.54265625 13.14453125 22.75390625 C13.02764207 29.59841735 9.38703072 36.3784703 4.73828125 41.2578125 C0.4837745 44.65323616 -1.587112 45.24043012 -7.29296875 46.19140625 C-7.29296875 69.62140625 -7.29296875 93.05140625 -7.29296875 117.19140625 C-11.58296875 117.19140625 -15.87296875 117.19140625 -20.29296875 117.19140625 C-20.29296875 93.76140625 -20.29296875 70.33140625 -20.29296875 46.19140625 C-22.27296875 45.53140625 -24.25296875 44.87140625 -26.29296875 44.19140625 C-31.90821488 40.60697048 -35.94479239 35.67633962 -37.87890625 29.2421875 C-39.46659378 21.37864075 -38.25447732 13.71793968 -33.8515625 6.98828125 C-25.76206358 -3.14705382 -11.59865849 -7.00803155 0 0 Z " fill="#CF1D21" transform="translate(714.29296875,418.80859375)"/>
<path d="M0 0 C3.96 0 7.92 0 12 0 C12 23.43 12 46.86 12 71 C13.98 71.33 15.96 71.66 18 72 C23.33883007 75.19189841 27.17039057 79.68162401 29.37109375 85.484375 C31.38307473 93.53229894 30.6543823 100.58774564 26.55859375 107.8046875 C23.00738826 112.80663608 18.85914424 116.1230447 13 118 C5.13770892 118.80783397 -2.56897741 119.08185701 -9 114 C-14.52683817 109.00434536 -17.43403704 103.5465691 -18.3515625 96.17578125 C-18.75549383 87.8739295 -16.90943557 81.38220453 -11.3203125 75.1171875 C-7.53178675 71.63174381 -5.20398028 70.73466009 0 69 C0 46.23 0 23.46 0 0 Z " fill="#CF1D21" transform="translate(721,471)"/>
<path d="M0 0 C18.48 0 36.96 0 56 0 C56 12.54 56 25.08 56 38 C37.12430748 38.90845579 18.87715688 38.82875323 0 38 C0 25.46 0 12.92 0 0 Z " fill="#000000" transform="translate(567,518)"/>
<path d="M0 0 C5.93009508 3.65624598 11.20041146 8.79424421 13.5 15.4375 C15.23643314 24.01113862 14.74344591 31.50249617 9.8671875 38.921875 C4.67990313 45.34822729 -0.87098902 48.61606215 -9.04296875 49.80859375 C-17.01156507 50.21628938 -23.41226034 47.62271569 -29.3125 42.3125 C-35.37586326 35.6710021 -37.21635447 28.12422879 -36.88671875 19.26953125 C-35.96615318 12.5280157 -32.66788715 7.78322328 -27.5 3.4375 C-26.98179687 2.97085937 -26.46359375 2.50421875 -25.9296875 2.0234375 C-18.90282327 -3.4216218 -8.00250034 -3.5948732 0 0 Z " fill="#030000" transform="translate(1007.5,368.5625)"/>
<path d="M0 0 C5.66270001 4.19836842 10.25661623 8.35312733 11.63671875 15.51953125 C12.28698737 23.4826568 12.34568594 30.78491896 7.63671875 37.51953125 C2.8553565 42.72816417 -2.5351372 46.98098812 -9.6953125 47.98828125 C-18.64619094 48.06864828 -24.45025929 46.97804457 -31.13671875 40.91015625 C-37.08421975 34.58549665 -38.96893474 27.85530095 -38.71875 19.265625 C-37.89575874 12.9077914 -34.88698073 7.04323073 -30.36328125 2.51953125 C-21.26379287 -4.09827848 -10.08626076 -6.31850054 0 0 Z " fill="#030000" transform="translate(464.36328125,575.48046875)"/>
<path d="M0 0 C4.28712087 2.26965223 7.52115655 4.80503416 10 9 C10.7255634 13.01097968 10.40443379 16.09002396 8.75 19.8125 C6.29653542 22.87933073 4.35659306 24.75409189 0.4140625 25.46875 C-8.04773868 25.5635601 -8.04773868 25.5635601 -11.5625 22.8125 C-14.97177303 18.87872343 -16.03249061 16.78698341 -15.9375 11.5625 C-13.82564673 3.53745757 -8.40285589 -0.85452772 0 0 Z " fill="#050000" transform="translate(704,428)"/>
<path d="M0 0 C2.9375 2.5 2.9375 2.5 5 5 C5.33 5.33 5.66 5.66 6 6 C6.67394234 10.49550176 7.17313777 15.05825473 4.75390625 19.0625 C1.59841891 22.09409985 -1.25438567 23.39466152 -5.625 23.6875 C-9.27201883 23.4510039 -9.99550696 23.00365059 -13 20.5625 C-13.66 19.716875 -14.32 18.87125 -15 18 C-15.33 17.67 -15.66 17.34 -16 17 C-16.52248736 11.89504157 -16.83350333 7.45863083 -14.25 2.9375 C-9.64448827 -1.02835732 -5.99397972 -1.89095789 0 0 Z " fill="#050000" transform="translate(732,553)"/>
</svg>
