<?xml version="1.0" encoding="UTF-8"?>
<svg version="1.1" xmlns="http://www.w3.org/2000/svg" width="1024" height="1024">
<path d="M0 0 C337.92 0 675.84 0 1024 0 C1024 337.92 1024 675.84 1024 1024 C686.08 1024 348.16 1024 0 1024 C0 686.08 0 348.16 0 0 Z " fill="#FEFEFE" transform="translate(0,0)"/>
<path d="M0 0 C1.86544891 0.99058994 3.70107989 2.03878994 5.5078125 3.1328125 C6.56307129 3.76622559 7.61833008 4.39963867 8.70556641 5.05224609 C10.39818604 6.07825928 10.39818604 6.07825928 12.125 7.125 C14.54982931 8.58190192 16.97774853 10.03360412 19.40625 11.484375 C20.02932037 11.85706512 20.65239075 12.22975525 21.29434204 12.61373901 C28.01880136 16.62621961 34.81694687 20.50662954 41.625 24.375 C49.2362708 28.70363435 56.83655133 33.04550211 64.375 37.5 C65.0342749 37.88696045 65.6935498 38.2739209 66.37280273 38.67260742 C69.57793253 40.55574853 72.76219435 42.46576774 75.92578125 44.41796875 C77.17958641 45.17464669 78.43348811 45.93116471 79.6875 46.6875 C80.76386719 47.35136719 81.84023438 48.01523437 82.94921875 48.69921875 C86.5954668 50.25389302 88.23358691 50.10420946 92 49 C93.69236789 48.2648777 95.3600404 47.47060417 97 46.625 C112.48529958 39.36626582 128.47029164 39.4408471 144.50390625 44.84375 C160.49604598 51.48091711 172.24747119 62.67000221 179.1328125 78.625 C185.17608545 95.99207565 182.92449738 114.85838764 175.49609375 131.3359375 C171.54170148 138.74923193 165.99244157 146.18772372 159 151 C158.03466339 151.2922345 157.06932678 151.58446899 156.07473755 151.88555908 C152.26098893 153.26358769 149.28716159 154.60546401 147 158 C145.07271341 165.06081417 145.82643043 172.74272773 146.12858772 179.97831535 C146.28679178 183.81702887 146.36839493 187.65067921 146.43003845 191.49208069 C146.59829714 201.02596457 146.89290286 210.5550125 147.19317627 220.08551025 C147.4445637 228.14370381 147.64077429 236.19910422 147.76614189 244.26043892 C147.84658802 248.03966006 148.00452865 251.81060119 148.16505432 255.58714294 C148.59097926 271.62700028 148.59097926 271.62700028 145.78846931 275.80703926 C142.3761222 279.04435833 138.42633839 280.49208307 134 282 C132.73497434 282.70329718 131.48570941 283.4380769 130.2746582 284.23071289 C129.29327881 284.8055542 128.31189941 285.38039551 127.30078125 285.97265625 C125.60211914 286.96845703 125.60211914 286.96845703 123.86914062 287.984375 C122.68364236 288.67716653 121.49809421 289.36987268 120.3125 290.0625 C119.04230006 290.80595943 117.77211815 291.54944966 116.50195312 292.29296875 C107.29180902 297.68000137 98.05297975 303.01650691 88.80517578 308.33862305 C77.06298787 315.10269963 65.37929529 321.96567223 53.6953125 328.82958984 C48.13797641 332.094102 42.57816948 335.3544002 37.01806641 338.61419678 C35.80284299 339.32671024 34.58767325 340.03931525 33.37255859 340.75201416 C26.96208792 344.51193497 20.54828087 348.26590339 14.125 352.00390625 C12.49461792 352.95293823 12.49461792 352.95293823 10.83129883 353.92114258 C8.80838512 355.09794204 6.78483546 356.27364934 4.76049805 357.44799805 C3.85340088 357.97562744 2.94630371 358.50325684 2.01171875 359.046875 C1.15755371 359.54123047 0.30338867 360.03558594 -0.57666016 360.54492188 C-3.51896674 362.31161009 -6.34330918 364.23148116 -9.13745117 366.22363281 C-11.77268611 367.32207915 -13.30019608 366.81887817 -16 366 C-18.11450195 364.99121094 -18.11450195 364.99121094 -20.23828125 363.734375 C-21.04604004 363.26314209 -21.85379883 362.79190918 -22.68603516 362.30639648 C-23.55276855 361.79278564 -24.41950195 361.2791748 -25.3125 360.75 C-33.17675066 356.16747914 -41.10305712 351.73794295 -49.125 347.4375 C-59.54540784 341.83896576 -69.80553464 335.99886582 -80 330 C-78.78865324 326.36595971 -77.96139364 326.10349625 -74.72265625 324.25 C-73.82482422 323.72873535 -72.92699219 323.2074707 -72.00195312 322.67041016 C-71.03193359 322.1191748 -70.06191406 321.56793945 -69.0625 321 C-67.05234721 319.84294765 -65.04324812 318.68406295 -63.03515625 317.5234375 C-62.02340332 316.93916992 -61.01165039 316.35490234 -59.96923828 315.75292969 C-57.18854823 314.11131198 -54.46177316 312.41063752 -51.74609375 310.6640625 C-50.5403772 309.89449219 -50.5403772 309.89449219 -49.31030273 309.109375 C-47.80262794 308.14069036 -46.30294692 307.15941616 -44.81274414 306.1640625 C-41.75883162 304.22089364 -39.75477964 303.03657075 -36.09765625 302.859375 C-30.61144645 304.87951783 -25.82664998 308.11683758 -20.90039062 311.2265625 C-20.08634766 311.7215625 -19.27230469 312.2165625 -18.43359375 312.7265625 C-17.70197021 313.18627441 -16.97034668 313.64598633 -16.21655273 314.11962891 C-13.32375101 315.26859278 -11.94721808 314.94208584 -9 314 C-7.18047359 313.12981406 -5.39514113 312.18617912 -3.640625 311.19140625 C-2.10426392 310.32612305 -2.10426392 310.32612305 -0.53686523 309.44335938 C0.54780029 308.82267578 1.63246582 308.20199219 2.75 307.5625 C4.43790649 306.60633789 4.43790649 306.60633789 6.15991211 305.63085938 C14.39606323 300.9524193 22.57512155 296.18248164 30.72070312 291.34863281 C35.24137125 288.67380733 39.77669255 286.024047 44.3125 283.375 C45.31498779 282.78936279 46.31747559 282.20372559 47.3503418 281.6003418 C52.92738644 278.34994382 58.51826714 275.12553397 64.12890625 271.93359375 C64.73271622 271.58983704 65.33652618 271.24608032 65.95863342 270.89190674 C68.86371999 269.23867763 71.77066291 267.58896989 74.6809082 265.94482422 C76.83529902 264.72130342 78.97674687 263.47464995 81.10319519 262.20318604 C83.8558191 260.59114325 86.64706673 259.23306098 89.55541992 257.92501831 C98.15423157 253.9388808 98.15423157 253.9388808 104.02125931 246.86092949 C105.59986168 240.74195657 105.21531014 234.49894734 104.9765625 228.23828125 C104.96541034 226.23620895 104.96223284 224.23407787 104.96664429 222.23197937 C104.95698482 216.99271018 104.83993863 211.7612871 104.69952393 206.52410889 C104.57524437 201.16828106 104.55382439 195.81211587 104.5234375 190.45507812 C104.44893829 179.96721687 104.26084011 169.48476739 104 159 C103.06446289 158.85755859 102.12892578 158.71511719 101.16503906 158.56835938 C91.43566828 156.82121535 83.78365386 149.75968335 77 143 C76.43539062 142.45859375 75.87078125 141.9171875 75.2890625 141.359375 C68.05177098 133.77745055 62.20626895 121.36406591 61 111 C61.15942674 109.40090144 61.34709939 107.80449963 61.5546875 106.2109375 C62.13386688 100.50368395 62.49905389 95.30056666 60 90 C53.62100722 83.59350564 44.84214235 79.8341577 36.79931641 75.90283203 C30.77372797 72.93236339 25.03835747 69.46611054 19.25 66.0625 C17.10767502 64.83305851 14.96447687 63.605137 12.8203125 62.37890625 C9.23735708 60.31548187 5.68877018 58.21400143 2.1796875 56.02734375 C1.48069336 55.59349365 0.78169922 55.15964355 0.06152344 54.71264648 C-1.71357279 53.60108534 -3.47842691 52.47321154 -5.2421875 51.34375 C-7.78045562 49.78886466 -7.78045562 49.78886466 -9.89501953 50.26733398 C-12.25437676 51.08853916 -14.26853166 52.13737304 -16.4375 53.37890625 C-17.31760742 53.8795459 -18.19771484 54.38018555 -19.10449219 54.89599609 C-20.06000977 55.44594238 -21.01552734 55.99588867 -22 56.5625 C-23.0096582 57.13822754 -24.01931641 57.71395508 -25.05957031 58.30712891 C-28.37597074 60.19968943 -31.68829301 62.09923997 -35 64 C-38.99849659 66.2916946 -42.99754267 68.58242625 -46.99740601 70.87173462 C-48.16977058 71.54285001 -49.34199053 72.2142181 -50.5140686 72.88583374 C-60.49063752 78.60103772 -70.5299272 84.19538796 -80.59277344 89.75708008 C-87.63581994 93.65915335 -94.61211349 97.6535054 -101.53100586 101.77124023 C-106.19537472 104.54450463 -110.91448199 107.19164246 -115.703125 109.74609375 C-118.07936583 110.98455305 -118.07936583 110.98455305 -120.421875 112.72265625 C-123.82881338 114.41063936 -125.32585003 113.89172539 -129 113 C-131.37764832 111.9249502 -133.61989385 110.82335746 -135.90234375 109.578125 C-136.5431337 109.2362616 -137.18392365 108.89439819 -137.84413147 108.54217529 C-139.19344637 107.81995904 -140.54054084 107.09358059 -141.88549805 106.36328125 C-143.92287436 105.25793491 -145.96748647 104.16706091 -148.01367188 103.078125 C-154.27216784 99.72487756 -160.37344444 96.36380187 -166 92 C-163.12141781 88.89136805 -160.26897503 86.80205225 -156.58984375 84.71484375 C-155.52765625 84.10769531 -154.46546875 83.50054687 -153.37109375 82.875 C-152.23800781 82.235625 -151.10492188 81.59625 -149.9375 80.9375 C-148.75221932 80.26239397 -147.56732714 79.58660543 -146.3828125 78.91015625 C-144.01439319 77.55831542 -141.64437018 76.20936086 -139.27294922 74.86279297 C-135.00166371 72.43179875 -130.7492441 69.9692443 -126.5 67.5 C-121.30203221 64.48678362 -116.10030798 61.48017573 -110.89453125 58.48046875 C-100.24807765 52.34565755 -89.60896483 46.19946294 -79 40 C-67.47767972 33.26749526 -55.92081241 26.59586656 -44.35693359 19.93505859 C-40.86807297 17.92395246 -37.38105172 15.90969005 -33.89453125 13.89453125 C-32.71794788 13.21474214 -31.54135295 12.53497305 -30.36474609 11.85522461 C-28.14731622 10.57401834 -25.93017441 9.29231333 -23.71337891 8.01000977 C-21.72525928 6.86182232 -19.73357749 5.71977291 -17.73779297 4.58496094 C-15.96053756 3.55607364 -14.2024228 2.49310838 -12.46923828 1.39160156 C-11.31077393 0.67568848 -11.31077393 0.67568848 -10.12890625 -0.0546875 C-9.47092041 -0.47991699 -8.81293457 -0.90514648 -8.13500977 -1.34326172 C-4.91413381 -2.33401716 -3.04788853 -1.30103682 0 0 Z " fill="#D11922" transform="translate(604,317)"/>
<path d="M0 0 C0.98613281 0.57105469 1.97226562 1.14210938 2.98828125 1.73046875 C3.72723633 2.12556641 4.46619141 2.52066406 5.22753906 2.92773438 C7.99060413 4.41691197 10.70757919 5.97346391 13.42578125 7.54296875 C15.48558554 8.72021227 17.54548413 9.89729081 19.60546875 11.07421875 C21.18666504 11.98107422 21.18666504 11.98107422 22.79980469 12.90625 C27.87083837 15.80753359 32.96166178 18.6735716 38.05078125 21.54296875 C46.37793746 26.24668672 54.6925367 30.9715581 62.98828125 35.73046875 C62.98828125 37.05046875 62.98828125 38.37046875 62.98828125 39.73046875 C61.27026367 41.20336914 61.27026367 41.20336914 58.84375 42.578125 C57.49966064 43.35518799 57.49966064 43.35518799 56.12841797 44.14794922 C54.66686279 44.96223389 54.66686279 44.96223389 53.17578125 45.79296875 C51.16143253 46.94266313 49.14711012 48.0924036 47.1328125 49.2421875 C46.10881348 49.8201709 45.08481445 50.3981543 44.02978516 50.99365234 C41.13992801 52.64387258 38.28491167 54.3402959 35.4375 56.0625 C34.58067627 56.57611084 33.72385254 57.08972168 32.84106445 57.61889648 C31.21638128 58.59364235 29.59622634 59.57598465 27.98120117 60.56665039 C26.88255737 61.21621704 26.88255737 61.21621704 25.76171875 61.87890625 C25.12669434 62.26224121 24.49166992 62.64557617 23.83740234 63.04052734 C21.43366835 63.93740512 20.37170075 63.62644355 17.98828125 62.73046875 C16.57964284 62.00265244 15.19615814 61.22488232 13.8359375 60.41015625 C13.05927734 59.95769531 12.28261719 59.50523437 11.48242188 59.0390625 C9.86079154 58.08301699 8.24357246 57.11944958 6.63085938 56.1484375 C5.46393555 55.47361328 5.46393555 55.47361328 4.2734375 54.78515625 C3.570979 54.36733887 2.86852051 53.94952148 2.14477539 53.51904297 C-0.64953666 52.49723521 -2.1914874 52.87366821 -5.01171875 53.73046875 C-7.5334318 55.08697646 -9.95199835 56.48293276 -12.38671875 57.98046875 C-13.9181357 58.90162936 -15.45075144 59.82079907 -16.984375 60.73828125 C-18.20858154 61.47159668 -18.20858154 61.47159668 -19.45751953 62.21972656 C-23.87487636 64.83247786 -28.35037458 67.34108248 -32.82421875 69.85546875 C-50.8408009 80.00331281 -68.78388802 90.28006536 -86.69921875 100.60546875 C-87.76954346 101.22220459 -88.83986816 101.83894043 -89.94262695 102.47436523 C-94.75830249 105.2545529 -99.56428981 108.04856441 -104.34375 110.890625 C-105.14143799 111.3645166 -105.93912598 111.8384082 -106.76098633 112.32666016 C-108.21514211 113.19325435 -109.66697969 114.06375579 -111.1159668 114.93896484 C-115.79357315 117.73046875 -115.79357315 117.73046875 -118.01171875 117.73046875 C-117.35171875 146.77046875 -116.69171875 175.81046875 -116.01171875 205.73046875 C-112.05171875 207.38046875 -108.09171875 209.03046875 -104.01171875 210.73046875 C-91.24442441 218.50948547 -82.15050468 229.63492341 -77.01171875 243.73046875 C-76.64175781 244.7153125 -76.27179688 245.70015625 -75.890625 246.71484375 C-74.32342918 252.37505956 -74.80419764 258.35023021 -74.88671875 264.16796875 C-74.89574219 265.37646484 -74.90476562 266.58496094 -74.9140625 267.83007812 C-74.93751707 270.79708153 -74.97034081 273.76367018 -75.01171875 276.73046875 C-74.24214844 276.93671875 -73.47257812 277.14296875 -72.6796875 277.35546875 C-67.56891785 279.27132702 -63.03698606 281.9964395 -58.32421875 284.73046875 C-50.37784526 289.28558689 -42.39162669 293.70265554 -34.2487793 297.89575195 C-29.72703325 300.24346202 -25.29466519 302.70407113 -20.89453125 305.2734375 C-19.85490234 305.87736328 -18.81527344 306.48128906 -17.74414062 307.10351562 C-15.70947118 308.29157842 -13.68177622 309.49168668 -11.66210938 310.70507812 C-10.73849609 311.24326172 -9.81488281 311.78144531 -8.86328125 312.3359375 C-7.63859131 313.06526489 -7.63859131 313.06526489 -6.38916016 313.80932617 C-3.39942758 314.96770171 -2.0397854 314.72035718 0.98828125 313.73046875 C3.54509917 312.51772965 3.54509917 312.51772965 6.14453125 310.94921875 C7.15193359 310.36333984 8.15933594 309.77746094 9.19726562 309.17382812 C10.28330078 308.53251953 11.36933594 307.89121094 12.48828125 307.23046875 C13.64221139 306.55601279 14.79651645 305.88219792 15.95117188 305.20898438 C19.01379869 303.42093322 22.07127217 301.62425654 25.12744141 299.82519531 C28.16218645 298.0398638 31.20035251 296.26037558 34.23828125 294.48046875 C37.86282563 292.35645046 41.486913 290.23167109 45.10888672 288.10327148 C54.69345951 282.47336645 64.3143449 276.90813853 73.95507812 271.375 C74.96892578 270.79234375 75.98277344 270.2096875 77.02734375 269.609375 C77.91631348 269.09963135 78.8052832 268.5898877 79.72119141 268.06469727 C81.51198828 267.01077685 83.25935728 265.88308473 84.98828125 264.73046875 C89.58191793 265.0354321 93.43603325 267.28130893 97.44921875 269.37109375 C98.15801178 269.7351532 98.86680481 270.09921265 99.59707642 270.4743042 C101.09297748 271.24464501 102.58728346 272.01809021 104.08007812 272.79443359 C106.34453174 273.97072911 108.61511304 275.13446332 110.88671875 276.296875 C112.34543869 277.05003293 113.80378436 277.80391629 115.26171875 278.55859375 C115.9317392 278.90150452 116.60175964 279.24441528 117.29208374 279.59771729 C121.82230721 281.96650511 125.88223138 284.68299429 129.98828125 287.73046875 C128.78381959 291.34385373 128.11821644 291.49045476 124.8515625 293.19140625 C123.97580566 293.65595215 123.10004883 294.12049805 122.19775391 294.59912109 C121.24175293 295.09621582 120.28575195 295.59331055 119.30078125 296.10546875 C111.46710988 300.27551788 103.73475385 304.55855959 96.11328125 309.10546875 C95.21625488 309.64002686 94.31922852 310.17458496 93.39501953 310.7253418 C91.54817155 311.82621511 89.70149374 312.92737395 87.85498047 314.02880859 C82.81276611 317.02184505 77.74356065 319.96849714 72.67578125 322.91796875 C65.93853527 326.84188276 59.20489098 330.77132487 52.48828125 334.73046875 C47.79293438 337.49816772 43.09184541 340.25563673 38.3828125 343 C37.39007324 343.5787085 36.39733398 344.15741699 35.37451172 344.75366211 C33.33179466 345.94278628 31.28785491 347.12981263 29.24267578 348.31469727 C24.04616796 351.33187779 18.88562112 354.39251961 13.7734375 357.55078125 C12.77981201 358.15817139 11.78618652 358.76556152 10.76245117 359.39135742 C8.87252179 360.54950614 6.99066721 361.7209684 5.1184082 362.9074707 C4.26851318 363.425271 3.41861816 363.94307129 2.54296875 364.4765625 C1.80546387 364.93732178 1.06795898 365.39808105 0.30810547 365.87280273 C-3.63486439 367.33056459 -6.78298078 366.26726018 -10.53100586 364.62988281 C-11.7724939 363.94490723 -11.7724939 363.94490723 -13.0390625 363.24609375 C-13.98346191 362.73006592 -14.92786133 362.21403809 -15.90087891 361.68237305 C-16.90683105 361.12074463 -17.9127832 360.55911621 -18.94921875 359.98046875 C-20.01188965 359.39628174 -21.07456055 358.81209473 -22.16943359 358.21020508 C-30.12622952 353.82201505 -38.0243954 349.33096584 -45.91918945 344.83251953 C-55.31168344 339.50710072 -64.83366748 334.43228998 -74.37158203 329.3737793 C-75.27286331 328.89544899 -75.27286331 328.89544899 -76.19235229 328.40745544 C-77.96738739 327.4680885 -79.74588431 326.53527256 -81.52441406 325.60253906 C-83.90235307 324.32600333 -86.2307052 323.03043796 -88.55371094 321.66308594 C-89.68196289 321.01243164 -90.81021484 320.36177734 -91.97265625 319.69140625 C-92.9682959 319.0989209 -93.96393555 318.50643555 -94.98974609 317.89599609 C-99.69505796 316.08123128 -103.39780066 317.1257762 -108.00390625 318.8515625 C-108.95523438 319.28597656 -109.9065625 319.72039062 -110.88671875 320.16796875 C-124.75076639 326.49556542 -141.35204029 326.86330293 -155.74609375 322.04296875 C-172.06628305 315.48365822 -186.36203664 304.30176681 -193.796875 287.94921875 C-199.94152872 273.52325568 -201.71386775 256.76344993 -196.33984375 241.7578125 C-189.85749396 226.98186813 -180.4277592 215.82126065 -165.82788086 208.61425781 C-164.75394325 208.08254974 -164.75394325 208.08254974 -163.65830994 207.5401001 C-163.11493484 207.27292175 -162.57155975 207.00574341 -162.01171875 206.73046875 C-162.02001489 206.14847403 -162.02831102 205.5664793 -162.03685856 204.96684837 C-162.2357597 190.79488873 -162.38461666 176.62313872 -162.4780283 162.45007896 C-162.52440488 155.59592896 -162.58760897 148.74271149 -162.69067383 141.88916016 C-162.79008178 135.27562184 -162.84227054 128.66279785 -162.86561394 122.04848099 C-162.88224978 119.52456024 -162.91473687 117.00069283 -162.96328926 114.4771843 C-163.02859579 110.94244427 -163.03762253 107.41171063 -163.03344727 103.87646484 C-163.06580475 102.83205231 -163.09816223 101.78763977 -163.13150024 100.71157837 C-163.04252761 93.75411376 -163.04252761 93.75411376 -160.03938961 90.77184677 C-157.75478193 89.23002717 -155.4810065 87.94913111 -153.01171875 86.73046875 C-152.07320068 86.15490234 -151.13468262 85.57933594 -150.16772461 84.98632812 C-149.36214111 84.52033203 -148.55655762 84.05433594 -147.7265625 83.57421875 C-146.33171631 82.76416382 -146.33171631 82.76416382 -144.90869141 81.93774414 C-143.93206543 81.37434326 -142.95543945 80.81094238 -141.94921875 80.23046875 C-139.80983899 78.98968134 -137.67051769 77.74879312 -135.53125 76.5078125 C-134.44666504 75.87987793 -133.36208008 75.25194336 -132.24462891 74.60498047 C-128.18428722 72.25070593 -124.13213739 69.88258046 -120.08032227 67.51367188 C-109.64834925 61.41559227 -99.18989221 55.36451764 -88.71875 49.33398438 C-81.50949461 45.1794254 -74.31838365 40.99500672 -67.13671875 36.79296875 C-60.81689157 33.0966242 -54.4866274 29.41989612 -48.12890625 25.7890625 C-47.25271637 25.28861671 -47.25271637 25.28861671 -46.35882568 24.77806091 C-43.40270127 23.09101695 -40.44419402 21.4083103 -37.48242188 19.73120117 C-31.63867957 16.41605 -25.84323217 13.04378103 -20.11328125 9.53515625 C-19.02144531 8.87386719 -17.92960938 8.21257812 -16.8046875 7.53125 C-14.74215168 6.27745202 -12.68940449 5.00736053 -10.6484375 3.71875 C-3.9166759 -0.35051963 -3.9166759 -0.35051963 0 0 Z " fill="#D11923" transform="translate(429.01171875,316.26953125)"/>
<path d="M0 0 C0.6914209 -0.02102783 1.3828418 -0.04205566 2.09521484 -0.0637207 C8.50314189 -0.24730708 14.91289036 -0.35297636 21.32283497 -0.4358654 C25.6232082 -0.49228428 29.91980558 -0.57336634 34.21826172 -0.71582031 C38.3836888 -0.85327995 42.54570905 -0.92486872 46.71326256 -0.95251846 C48.29112277 -0.97381129 49.86886512 -1.01747373 51.44541359 -1.08523178 C58.55071904 -1.37631074 64.51859046 -1.51520706 70.16415405 3.26751709 C73.45704263 6.4105445 76.35060411 9.83938745 79.27807617 13.31982422 C80.26807617 13.81482422 80.26807617 13.81482422 81.27807617 14.31982422 C81.27807617 58.86982422 81.27807617 103.41982422 81.27807617 149.31982422 C59.46713867 149.53638672 59.46713867 149.53638672 37.21557617 149.75732422 C32.63287842 149.82105225 28.05018066 149.88478027 23.32861328 149.95043945 C17.71081543 149.98205566 17.71081543 149.98205566 15.07667542 149.9879303 C13.2460284 149.99864448 11.41542929 150.02319295 9.58509827 150.05885315 C6.80342519 150.11031548 4.02475556 150.11716026 1.24267578 150.11450195 C0.43407828 150.13968871 -0.37451921 150.16487547 -1.20761967 150.19082546 C-5.92261097 150.13076182 -8.22545457 149.30484783 -11.6103363 145.94203186 C-12.66138226 144.74666643 -13.69964202 143.53987996 -14.72192383 142.31982422 C-15.62942383 141.41232422 -16.53692383 140.50482422 -17.47192383 139.56982422 C-18.21442383 138.82732422 -18.95692383 138.08482422 -19.72192383 137.31982422 C-20.25139618 136.89223816 -20.78086853 136.4646521 -21.3263855 136.02410889 C-23.28734033 133.62931601 -23.18155997 131.87343247 -23.30053711 128.80126953 C-23.34872589 127.66868713 -23.39691467 126.53610474 -23.44656372 125.36920166 C-23.58075774 120.14963226 -23.70459628 114.93083294 -23.7722168 109.70996094 C-23.81195322 106.96822868 -23.8948297 104.23335733 -24.01831055 101.49414062 C-25.18462987 74.92955203 -25.18462987 74.92955203 -17.05395508 65.98779297 C-7.83793198 57.57041901 4.86485468 58.57497544 16.58659744 59.09013176 C17.94384822 59.15570245 19.30105059 59.22228242 20.65820312 59.28985596 C24.11665233 59.44529533 27.57685687 59.51305119 31.0378418 59.58740234 C37.79350104 59.73878401 44.52141831 60.03198931 51.27807617 60.31982422 C51.27807617 50.41982422 51.27807617 40.51982422 51.27807617 30.31982422 C36.75807617 30.31982422 22.23807617 30.31982422 7.27807617 30.31982422 C7.27807617 35.26982422 7.27807617 40.21982422 7.27807617 45.31982422 C-2.29192383 45.31982422 -11.86192383 45.31982422 -21.72192383 45.31982422 C-23.82430715 16.22787039 -23.82430715 16.22787039 -18.89770508 9.40185547 C-13.36150649 3.43383808 -8.16561232 0.24102296 0 0 Z " fill="#1D1615" transform="translate(379.721923828125,428.68017578125)"/>
<path d="M0 0 C1.99630179 0.02804535 3.99270821 0.04936492 5.989151 0.0643158 C11.19516915 0.12106686 16.39471282 0.26789437 21.59820557 0.43487549 C26.92720963 0.58949468 32.25728079 0.65707425 37.58789062 0.73242188 C48.01108739 0.89236629 58.42781591 1.15572023 68.84765625 1.46484375 C68.84765625 11.36484375 68.84765625 21.26484375 68.84765625 31.46484375 C44.09765625 31.46484375 19.34765625 31.46484375 -6.15234375 31.46484375 C-6.15234375 41.03484375 -6.15234375 50.60484375 -6.15234375 60.46484375 C-2.07890625 60.27921875 1.99453125 60.09359375 6.19140625 59.90234375 C9.48633614 59.79909427 12.78079557 59.71246808 16.07643127 59.63684082 C19.53207675 59.55307064 22.98121889 59.44175293 26.43310547 59.2578125 C51.36185235 57.96840428 51.36185235 57.96840428 60.55505371 64.78417969 C68.24391908 71.94216984 70.28397397 79.88950674 70.97265625 90.15234375 C71.05891629 93.96795006 71.03381678 97.75802132 70.93359375 101.57324219 C70.84761976 105.46649617 70.93290694 109.33030025 71.03515625 113.22265625 C71.02458125 115.74094939 71.00407693 118.25922443 70.97265625 120.77734375 C71.00504395 121.91324951 71.03743164 123.04915527 71.07080078 124.21948242 C70.65516788 133.35344709 66.2410638 139.11316982 59.93562317 145.32598877 C51.14779797 152.91843419 42.2491551 152.51165295 31.16015625 152.02734375 C29.12045257 151.99742451 27.08063227 151.97468562 25.04077148 151.95874023 C19.72427289 151.89823634 14.41500034 151.74165607 9.10131836 151.56347656 C3.65838373 151.39847727 -1.78574324 151.32644989 -7.23046875 151.24609375 C-17.87474713 151.07554143 -28.51180866 150.79466482 -39.15234375 150.46484375 C-39.15234375 140.56484375 -39.15234375 130.66484375 -39.15234375 120.46484375 C-13.74234375 120.46484375 11.66765625 120.46484375 37.84765625 120.46484375 C37.84765625 110.56484375 37.84765625 100.66484375 37.84765625 90.46484375 C33.68140625 90.54605469 29.51515625 90.62726563 25.22265625 90.7109375 C21.88341229 90.75601047 18.54425523 90.79394928 15.20487976 90.82709503 C11.6888544 90.86393829 8.1740259 90.91309367 4.65869141 90.99291992 C0.61740087 91.08410671 -3.42263877 91.11759857 -7.46484375 91.1484375 C-8.71410645 91.1845665 -9.96336914 91.2206955 -11.25048828 91.25791931 C-16.95655705 91.26047466 -21.093792 91.19874751 -25.5703125 87.42211914 C-26.78735386 86.12424612 -27.9816317 84.80465617 -29.15234375 83.46484375 C-29.81029938 82.87719238 -30.468255 82.28954102 -31.14614868 81.68408203 C-36.17299384 76.90794739 -37.04182438 72.76520988 -37.33016968 65.94773865 C-37.3410965 64.74553177 -37.35202332 63.54332489 -37.36328125 62.3046875 C-37.38895172 61.04201553 -37.41462219 59.77934357 -37.44107056 58.47840881 C-37.48081393 55.80976818 -37.50446225 53.14618779 -37.50439453 50.4777832 C-37.50924937 47.10043184 -37.61476202 43.73468974 -37.74699974 40.36025143 C-37.85429333 37.09228666 -37.85137519 33.8241727 -37.86328125 30.5546875 C-37.91874115 29.36665024 -37.97420105 28.17861298 -38.03134155 26.95457458 C-37.86312278 17.90695431 -34.14873499 12.36521883 -27.86700916 6.2182827 C-19.41789701 -0.96956649 -10.57917104 -0.44198651 0 0 Z " fill="#1D1615" transform="translate(586.15234375,427.53515625)"/>
<path d="M0 0 C3.63 0 7.26 0 11 0 C11 19.14 11 38.28 11 58 C12.98 58.66 14.96 59.32 17 60 C22.42924874 64.69360626 25.66001453 69.60014534 26.375 76.75 C26.17700864 82.5797455 24.29600355 87.7510457 20.09375 91.8671875 C14.4110099 96.2988766 9.76795325 97.42164553 2.6015625 97.34765625 C-2.91429016 96.61055282 -6.64213227 93.42933445 -10.375 89.5 C-14.05032843 83.84564857 -14.99778909 78.6892595 -14 72 C-11.17370692 65.16784524 -6.5319468 61.2659734 0 58 C0 38.86 0 19.72 0 0 Z " fill="#D01C24" transform="translate(508,479)"/>
<path d="M0 0 C5.13279389 2.79607449 9.080611 6.866833 10.9375 12.4375 C11.50810449 18.71414941 11.23360875 23.90854339 7.9375 29.4375 C4.8910627 32.62077491 2.14382438 35.03539187 -2.0625 36.4375 C-2.3925 54.5875 -2.7225 72.7375 -3.0625 91.4375 C-6.3625 91.4375 -9.6625 91.4375 -13.0625 91.4375 C-13.05089844 89.7975708 -13.03929687 88.1576416 -13.02734375 86.46801758 C-12.99481038 80.38283623 -13.01464308 74.29875566 -13.05029297 68.21362305 C-13.0584034 65.58016473 -13.05231547 62.94662283 -13.03173828 60.31323242 C-13.00461525 56.52671477 -13.02856871 52.74343321 -13.0625 48.95703125 C-13.0430835 47.77977982 -13.02366699 46.60252838 -13.00366211 45.38960266 C-12.92180336 39.46316148 -12.92180336 39.46316148 -15.84423828 34.63031006 C-17.95853009 33.26170152 -17.95853009 33.26170152 -20.16455078 32.30702209 C-24.14181823 30.48488592 -25.60621227 26.34116016 -27.0625 22.4375 C-28.00042294 15.75479902 -25.78718123 10.35619132 -22.4375 4.6875 C-16.1558082 -1.26357644 -8.09142985 -3.54000056 0 0 Z " fill="#D01C24" transform="translate(501.0625,439.5625)"/>
<path d="M0 0 C14.19 0 28.38 0 43 0 C43 9.9 43 19.8 43 30 C28.81 30 14.62 30 0 30 C0 20.1 0 10.2 0 0 Z " fill="#FCFCFC" transform="translate(388,519)"/>
<path d="M0 0 C5.66769723 2.58602155 8.97989542 6.23668575 11.9921875 11.6875 C13.52619211 17.54460849 13.09063863 22.87315156 10.796875 28.421875 C8.10960671 32.96955981 3.53845766 36.34945027 -1.3203125 38.3125 C-8.25537351 39.25368685 -13.9766342 38.94795046 -19.703125 34.7421875 C-23.61103516 31.28736838 -26.88695939 27.27542593 -27.65625 22.015625 C-27.76502117 15.1847954 -26.68362353 9.84667443 -21.859375 4.77734375 C-15.32478322 -0.91139985 -8.42363929 -2.49589312 0 0 Z " fill="#FDFBFB" transform="translate(733.3203125,399.6875)"/>
<path d="M0 0 C4.66658693 2.6409285 8.35263793 6.64277586 10.75 11.4375 C11.7344147 24.08344274 11.7344147 24.08344274 7.75 29.4375 C2.46699223 34.72050777 -1.23825854 37.5494025 -8.875 37.875 C-15.45671433 37.79541458 -19.58662925 36.08183658 -24.25 31.4375 C-27.33262394 27.44311405 -29.04738639 23.88112198 -29.75 18.875 C-28.53908801 10.54998007 -25.65704255 6.06682916 -19.125 0.6875 C-13.61579014 -2.98530657 -5.8882162 -2.65480268 0 0 Z " fill="#FDFBFB" transform="translate(301.25,561.5625)"/>
<path d="M0 0 C3.4349399 2.59528793 4.78263095 4.33581678 6.125 8.4375 C5.9936896 12.17984634 5.36215379 14.1033851 2.72265625 16.81640625 C-0.01593703 18.69802476 -2.47237147 19.26561771 -5.76953125 19.42578125 C-9.33404922 18.74533912 -10.96325491 16.92533714 -13.02734375 14.0390625 C-14.6616914 10.61283971 -14.23682288 8.51518083 -13 5 C-8.7367867 -0.02840543 -6.47971898 -1.77874639 0 0 Z " fill="#FCF6F6" transform="translate(518,547)"/>
<path d="M0 0 C1.31804626 -0.00131424 1.31804626 -0.00131424 2.66271973 -0.00265503 C5.55292185 0.00150885 8.44077229 0.04810281 11.33056641 0.09521484 C13.33980034 0.10641128 15.34905069 0.11494935 17.35830688 0.12094116 C22.63590045 0.14380415 27.91249664 0.20270608 33.18969727 0.26916504 C38.57896432 0.33064188 43.96839321 0.35796774 49.35791016 0.38818359 C59.92482419 0.45245178 70.49073741 0.55795675 81.05712891 0.68115234 C81.05712891 10.58115234 81.05712891 20.48115234 81.05712891 30.68115234 C80.39712891 30.68115234 79.73712891 30.68115234 79.05712891 30.68115234 C79.05712891 21.44115234 79.05712891 12.20115234 79.05712891 2.68115234 C67.65221078 2.72145241 56.2477145 2.77847943 44.84305191 2.86505508 C39.54753622 2.90458382 34.25218816 2.93674582 28.95654297 2.95214844 C23.84702497 2.96727947 18.73796767 3.00166172 13.62865448 3.04946136 C11.67824047 3.06431188 9.72776071 3.07219545 7.77729034 3.07303619 C5.04747759 3.07539658 2.31894767 3.10240061 -0.41064453 3.13525391 C-1.21912842 3.13022354 -2.0276123 3.12519318 -2.8605957 3.12001038 C-6.56853214 3.18916812 -8.53755298 3.35569669 -11.47613525 5.715271 C-12.20216949 6.68838226 -12.20216949 6.68838226 -12.94287109 7.68115234 C-13.60287109 7.35115234 -14.26287109 7.02115234 -14.94287109 6.68115234 C-10.19461618 0.92850341 -7.34180298 -0.19314127 0 0 Z " fill="#282322" transform="translate(573.94287109375,428.31884765625)"/>
<path d="M0 0 C3.72519995 1.42667232 5.53312291 2.9427362 7.9375 6.125 C8.83176216 10.32803214 8.12568265 11.81706475 5.875 15.5 C2.9375 18.125 2.9375 18.125 -0.5625 18.75 C-4.71922698 18.00772732 -6.40234093 17.43004612 -9.0625 14.125 C-9.84380792 10.95241633 -9.85662909 8.29588423 -9.0625 5.125 C-6.77342533 1.66404411 -4.20682752 0.17170725 0 0 Z " fill="#FDFAFA" transform="translate(494.0625,447.875)"/>
<path d="M0 0 C1.32 0.66 2.64 1.32 4 2 C3.28199219 2.391875 2.56398438 2.78375 1.82421875 3.1875 C-1.26933865 5.17285358 -3.61198951 7.38162927 -6.1875 10 C-7.04730469 10.86625 -7.90710938 11.7325 -8.79296875 12.625 C-11.10932887 14.99059241 -11.10932887 14.99059241 -13 18 C-13.68530273 16.21582031 -13.68530273 16.21582031 -14 14 C-12.82836914 12.26074219 -12.82836914 12.26074219 -11.03515625 10.546875 C-10.40029297 9.928125 -9.76542969 9.309375 -9.11132812 8.671875 C-8.43521484 8.03765625 -7.75910156 7.4034375 -7.0625 6.75 C-6.05413086 5.77546875 -6.05413086 5.77546875 -5.02539062 4.78125 C-3.36087407 3.17575886 -1.68584572 1.58303096 0 0 Z " fill="#25201E" transform="translate(372,489)"/>
<path d="M0 0 C-1.41773462 3.54433654 -2.67612238 4.33806119 -6 6 C-6.28875 6.598125 -6.5775 7.19625 -6.875 7.8125 C-8.55805758 11.08511196 -11.11451985 12.74179814 -14 15 C-14 12 -14 12 -11.4453125 9.08203125 C-10.34630754 7.98435681 -9.23915907 6.89478953 -8.125 5.8125 C-7.56941406 5.25369141 -7.01382812 4.69488281 -6.44140625 4.11914062 C-2.26694139 0 -2.26694139 0 0 0 Z " fill="#2D2827" transform="translate(373,430)"/>
<path d="M0 0 C-1.39332574 3.36720387 -2.9789286 4.9859524 -6 7 C-6.66 6.67 -7.32 6.34 -8 6 C-7.0479279 4.99403703 -6.08812654 3.99538437 -5.125 3 C-4.59132813 2.443125 -4.05765625 1.88625 -3.5078125 1.3125 C-2 0 -2 0 0 0 Z " fill="#322E2D" transform="translate(373,430)"/>
<path d="M0 0 C0.66 0.33 1.32 0.66 2 1 C1.0479279 2.00596297 0.08812654 3.00461563 -0.875 4 C-1.40867188 4.556875 -1.94234375 5.11375 -2.4921875 5.6875 C-4 7 -4 7 -6 7 C-4.60667426 3.63279613 -3.0210714 2.0140476 0 0 Z " fill="#CF242B" transform="translate(251,533)"/>
</svg>
